<mxfile host="ac.draw.io" agent="Mozilla/5.0 (Macintosh; Intel Mac OS X 10_15_7) AppleWebKit/537.36 (KHTML, like Gecko) Chrome/130.0.0.0 Safari/537.36" version="24.8.4">
  <diagram id="1aXGEY5gKSrcRqP4pJKV" name="Page-1">
    <mxGraphModel dx="1548" dy="1082" grid="1" gridSize="10" guides="1" tooltips="1" connect="1" arrows="1" fold="1" page="1" pageScale="1" pageWidth="850" pageHeight="1100" math="0" shadow="0">
      <root>
        <mxCell id="0" />
        <mxCell id="1" parent="0" />
        <mxCell id="WVyRW_VdUEfCq2le90b7-1" value="&lt;b&gt;Brand&lt;/b&gt;&lt;div&gt;PE = True&lt;/div&gt;" style="rounded=1;whiteSpace=wrap;html=1;fillColor=#dae8fc;strokeColor=#6c8ebf;" parent="1" vertex="1">
          <mxGeometry x="160" y="110" width="100" height="50" as="geometry" />
        </mxCell>
        <mxCell id="WVyRW_VdUEfCq2le90b7-2" value="&lt;b&gt;Product Family&lt;/b&gt;&lt;div&gt;PE = True&lt;/div&gt;" style="rounded=1;whiteSpace=wrap;html=1;fillColor=#dae8fc;strokeColor=#6c8ebf;" parent="1" vertex="1">
          <mxGeometry x="270" y="180" width="100" height="50" as="geometry" />
        </mxCell>
        <mxCell id="WVyRW_VdUEfCq2le90b7-3" value="&lt;b&gt;Product&lt;/b&gt;&lt;div&gt;PE = True&lt;/div&gt;" style="rounded=1;whiteSpace=wrap;html=1;fillColor=#dae8fc;strokeColor=#6c8ebf;" parent="1" vertex="1">
          <mxGeometry x="375" y="250" width="100" height="50" as="geometry" />
        </mxCell>
        <mxCell id="WVyRW_VdUEfCq2le90b7-4" value="&lt;b&gt;Asset&lt;/b&gt;&lt;div&gt;PE = False&lt;/div&gt;" style="rounded=1;whiteSpace=wrap;html=1;fillColor=#dae8fc;strokeColor=#6c8ebf;" parent="1" vertex="1">
          <mxGeometry x="490" y="320" width="100" height="50" as="geometry" />
        </mxCell>
        <mxCell id="WVyRW_VdUEfCq2le90b7-5" value="" style="endArrow=classic;html=1;rounded=0;exitX=1;exitY=0.5;exitDx=0;exitDy=0;entryX=0.5;entryY=0;entryDx=0;entryDy=0;edgeStyle=orthogonalEdgeStyle;" parent="1" source="WVyRW_VdUEfCq2le90b7-1" target="WVyRW_VdUEfCq2le90b7-2" edge="1">
          <mxGeometry relative="1" as="geometry">
            <mxPoint x="370" y="360" as="sourcePoint" />
            <mxPoint x="470" y="360" as="targetPoint" />
          </mxGeometry>
        </mxCell>
        <mxCell id="WVyRW_VdUEfCq2le90b7-6" value="PR = False&lt;div&gt;PH = True&lt;/div&gt;" style="edgeLabel;resizable=0;html=1;;align=center;verticalAlign=middle;" parent="WVyRW_VdUEfCq2le90b7-5" connectable="0" vertex="1">
          <mxGeometry relative="1" as="geometry" />
        </mxCell>
        <mxCell id="WVyRW_VdUEfCq2le90b7-7" value="" style="endArrow=classic;html=1;rounded=0;exitX=1;exitY=0.5;exitDx=0;exitDy=0;entryX=0.5;entryY=0;entryDx=0;entryDy=0;edgeStyle=orthogonalEdgeStyle;" parent="1" source="WVyRW_VdUEfCq2le90b7-2" target="WVyRW_VdUEfCq2le90b7-3" edge="1">
          <mxGeometry relative="1" as="geometry">
            <mxPoint x="330" y="215" as="sourcePoint" />
            <mxPoint x="420" y="250" as="targetPoint" />
          </mxGeometry>
        </mxCell>
        <mxCell id="WVyRW_VdUEfCq2le90b7-8" value="PR = False&lt;div&gt;PH = True&lt;/div&gt;" style="edgeLabel;resizable=0;html=1;;align=center;verticalAlign=middle;" parent="WVyRW_VdUEfCq2le90b7-7" connectable="0" vertex="1">
          <mxGeometry relative="1" as="geometry" />
        </mxCell>
        <mxCell id="WVyRW_VdUEfCq2le90b7-9" value="" style="endArrow=classic;html=1;rounded=0;exitX=1;exitY=0.5;exitDx=0;exitDy=0;entryX=0.5;entryY=0;entryDx=0;entryDy=0;edgeStyle=orthogonalEdgeStyle;" parent="1" source="WVyRW_VdUEfCq2le90b7-3" target="WVyRW_VdUEfCq2le90b7-4" edge="1">
          <mxGeometry relative="1" as="geometry">
            <mxPoint x="340" y="235" as="sourcePoint" />
            <mxPoint x="435" y="260" as="targetPoint" />
          </mxGeometry>
        </mxCell>
        <mxCell id="WVyRW_VdUEfCq2le90b7-10" value="PR = True&lt;div&gt;PH = False&lt;/div&gt;" style="edgeLabel;resizable=0;html=1;;align=center;verticalAlign=middle;" parent="WVyRW_VdUEfCq2le90b7-9" connectable="0" vertex="1">
          <mxGeometry relative="1" as="geometry" />
        </mxCell>
        <mxCell id="WVyRW_VdUEfCq2le90b7-11" value="&lt;div&gt;PE = Path Enabled Definition&lt;/div&gt;&lt;div&gt;PR = Path relation&lt;/div&gt;&lt;div style=&quot;&quot;&gt;PH = Is Path Hierarchy relation&lt;/div&gt;" style="text;html=1;align=left;verticalAlign=middle;whiteSpace=wrap;rounded=0;" parent="1" vertex="1">
          <mxGeometry x="70" y="280" width="260" height="90" as="geometry" />
        </mxCell>
      </root>
    </mxGraphModel>
  </diagram>
</mxfile>
